HIERARCHY
ROOT Hips
{
	OFFSET -0.001795 -0.223333 0.028219
	CHANNELS 6 Xposition Yposition Zposition Zrotation Yrotation Xrotation 
	JOINT LeftUpLeg
	{
		OFFSET 0.069520 -0.091406 -0.006815
		CHANNELS 3 Zrotation Yrotation Xrotation
		JOINT LeftLeg
		{
			OFFSET 0.034277 -0.375199 -0.004496
			CHANNELS 3 Zrotation Yrotation Xrotation
			JOINT LeftFoot
			{
				OFFSET -0.013596 -0.397961 -0.043693
				CHANNELS 3 Zrotation Yrotation Xrotation
				JOINT LeftToe
				{
					OFFSET 0.026358 -0.055791 0.119288
					CHANNELS 3 Zrotation Yrotation Xrotation
					End Site
					{
						OFFSET 0.000000 0.000000 0.000000
					}
				}
			}
		}
	}
	JOINT RightUpLeg
	{
		OFFSET -0.067670 -0.090522 -0.004320
		CHANNELS 3 Zrotation Yrotation Xrotation
		JOINT RightLeg
		{
			OFFSET -0.038290 -0.382569 -0.008850
			CHANNELS 3 Zrotation Yrotation Xrotation
			JOINT RightFoot
			{
				OFFSET 0.015774 -0.398415 -0.042312
				CHANNELS 3 Zrotation Yrotation Xrotation
				JOINT RightToe
				{
					OFFSET -0.025372 -0.048144 0.123348
					CHANNELS 3 Zrotation Yrotation Xrotation
					End Site
					{
						OFFSET 0.000000 0.000000 0.000000
					}
				}
			}
		}
	}
	JOINT Spine
	{
		OFFSET -0.002533 0.108963 -0.026696
		CHANNELS 3 Zrotation Yrotation Xrotation
		JOINT Spine1
		{
			OFFSET 0.005487 0.135180 0.001092
			CHANNELS 3 Zrotation Yrotation Xrotation
			JOINT Spine2
			{
				OFFSET 0.001457 0.052922 0.025425
				CHANNELS 3 Zrotation Yrotation Xrotation
				JOINT Neck
				{
					OFFSET -0.002778 0.213870 -0.042857
					CHANNELS 3 Zrotation Yrotation Xrotation
					JOINT Head
					{
						OFFSET 0.005152 0.064970 0.051349
						CHANNELS 3 Zrotation Yrotation Xrotation
						End Site
						{
							OFFSET 0.000000 0.000000 0.000000
						}
					}
				}
				JOINT LeftShoulder
				{
					OFFSET 0.078845 0.121749 -0.034090
					CHANNELS 3 Zrotation Yrotation Xrotation
					JOINT LeftArm
					{
						OFFSET 0.090977 0.030469 -0.008868
						CHANNELS 3 Zrotation Yrotation Xrotation
						JOINT LeftForeArm
						{
							OFFSET 0.259612 -0.012772 -0.027456
							CHANNELS 3 Zrotation Yrotation Xrotation
							JOINT LeftHand
							{
								OFFSET 0.249234 0.008986 -0.001171
								CHANNELS 3 Zrotation Yrotation Xrotation
								End Site
								{
									OFFSET 0.000000 0.000000 0.000000
								}
							}
						}
					}
				}
				JOINT RightShoulder
				{
					OFFSET -0.081759 0.118833 -0.038615
					CHANNELS 3 Zrotation Yrotation Xrotation
					JOINT RightArm
					{
						OFFSET -0.096012 0.032551 -0.009143
						CHANNELS 3 Zrotation Yrotation Xrotation
						JOINT RightForeArm
						{
							OFFSET -0.253742 -0.013329 -0.021401
							CHANNELS 3 Zrotation Yrotation Xrotation
							JOINT RightHand
							{
								OFFSET -0.255298 0.007772 -0.005559
								CHANNELS 3 Zrotation Yrotation Xrotation
								End Site
								{
									OFFSET 0.000000 0.000000 0.000000
								}
							}
						}
					}
				}
			}
		}
	}
}
MOTION
Frames: 18
Frame Time: 0.050000
0.000000 0.952788 0.000000 -0.770665 0.763979 0.189245 4.427468 0.144125 4.037140 -2.206655 0.318644 -5.610937 2.932827 8.982361 9.876536 0.000000 0.000000 0.000000 -2.707783 -0.063298 1.587582 2.246142 -0.225911 0.839125 -2.869669 -9.430816 7.893088 0.000000 0.000000 0.000000 -0.635429 -0.188356 5.436930 4.563006 -0.562852 -22.876408 -0.673954 -0.206355 27.900220 0.682232 1.329823 -27.920661 0.000000 0.000000 0.000000 -27.031428 1.005475 -2.419494 -46.905820 -5.835420 -5.614421 -13.820241 -26.612714 4.632906 0.000000 0.000000 0.000000 18.454387 4.597254 1.596066 51.741585 7.524393 -4.359266 9.707071 32.209534 4.211435 0.000000 0.000000 0.000000 
-0.000683 0.951765 0.000183 -0.841609 0.141265 0.759454 4.512013 0.137711 3.943819 -2.024769 0.321716 -6.290651 3.254306 9.169579 8.587589 0.000000 0.000000 0.000000 -2.773859 0.027719 0.532908 2.311797 -0.219647 1.356767 -3.114500 -9.684436 6.636974 0.000000 0.000000 0.000000 -0.394270 -0.181718 4.937666 4.213358 -0.475491 -22.971583 -0.877032 -0.190899 28.062495 0.583931 1.336831 -28.124680 0.000000 0.000000 0.000000 -26.933570 1.490401 -2.577491 -47.172541 -6.002180 -5.626146 -13.235507 -26.986563 4.592141 0.000000 0.000000 0.000000 18.242711 4.852083 1.640129 52.388348 6.118363 -4.972925 9.853397 34.037070 4.523463 0.000000 0.000000 0.000000 
-0.001072 0.951272 0.000298 -0.618651 0.044366 1.230108 4.439809 0.081715 2.862751 -2.204892 0.309890 -4.765204 3.094126 8.716564 7.881530 0.000000 0.000000 0.000000 -2.939246 0.057626 0.252249 2.077075 -0.199730 0.942924 -3.212158 -9.777569 6.146102 0.000000 0.000000 0.000000 -0.093800 -0.196805 4.920641 3.986569 -0.426296 -22.836068 -1.030094 -0.518043 28.128690 0.042672 1.612441 -28.981964 0.000000 0.000000 0.000000 -26.756651 0.854964 -2.000299 -46.751137 -6.502749 -5.448259 -14.133331 -26.530831 4.733619 0.000000 0.000000 0.000000 18.395524 4.875594 1.548342 52.440712 6.235179 -4.904270 9.226806 34.340492 4.355641 0.000000 0.000000 0.000000 
-0.001400 0.950879 0.000662 -0.458298 0.105415 1.409150 4.403934 0.063543 2.535770 -2.374363 0.320523 -4.746750 3.343122 9.037750 7.393147 0.000000 0.000000 0.000000 -3.306801 0.103595 -0.231941 2.332777 -0.223303 1.246980 -3.321420 -10.028842 6.242946 0.000000 0.000000 0.000000 -0.292934 -0.189636 5.029413 4.153949 -0.464802 -22.857470 -1.199082 -0.791023 28.440952 -0.336087 1.774909 -28.942627 0.000000 0.000000 0.000000 -27.101785 0.945504 -1.997830 -46.205509 -6.786885 -5.339609 -15.283411 -27.750071 5.276006 0.000000 0.000000 0.000000 17.865739 5.621196 1.911252 52.148261 5.625526 -5.160322 10.797340 35.912207 5.062085 0.000000 0.000000 0.000000 
-0.001715 0.950879 0.001285 -0.362143 0.305683 1.565600 4.335870 0.034963 2.021612 -2.525177 0.323773 -4.281842 3.312434 8.923442 7.099940 0.000000 0.000000 0.000000 -3.231049 0.093769 -0.120724 2.107096 -0.208116 0.749759 -3.410513 -10.237815 6.385802 0.000000 0.000000 0.000000 -0.220413 -0.217769 5.638742 4.522414 -0.604269 -22.074753 -1.617887 -0.613383 27.669209 -0.457356 1.864924 -28.161356 0.000000 0.000000 0.000000 -26.558061 0.501480 -1.810926 -46.083869 -6.703466 -5.244959 -17.629483 -29.938066 6.354473 0.000000 0.000000 0.000000 17.629842 5.276645 1.777779 51.632941 5.058754 -5.263188 12.791517 38.040406 6.094638 0.000000 0.000000 0.000000 
-0.001991 0.950999 0.002469 -0.348430 0.229376 2.018225 4.480760 0.002276 1.562751 -2.813750 0.344191 -4.267662 3.705478 9.624433 7.152565 0.000000 0.000000 0.000000 -3.389778 0.126521 -0.466633 2.213183 -0.219007 0.767612 -3.256820 -9.921479 6.403022 0.000000 0.000000 0.000000 -0.331862 -0.208217 5.583613 4.578703 -0.606611 -22.228473 -1.332355 -0.669350 28.360517 -0.619652 1.950042 -28.591178 0.000000 0.000000 0.000000 -26.288955 0.332137 -1.608942 -46.204140 -7.095168 -5.196375 -19.872566 -32.710350 7.730823 0.000000 0.000000 0.000000 16.982555 5.503672 1.902129 51.360097 4.388375 -5.576962 15.466308 40.794605 7.604719 0.000000 0.000000 0.000000 
-0.002279 0.950800 0.004481 -0.216274 0.204604 2.376950 4.508212 -0.050314 0.626891 -3.388690 0.382510 -3.778386 3.971123 10.077041 7.097343 0.000000 0.000000 0.000000 -3.361139 0.159735 -0.899715 2.022214 -0.193279 0.941778 -3.307475 -9.924178 5.950317 0.000000 0.000000 0.000000 -0.276926 -0.228466 6.028219 4.553250 -0.620940 -21.872315 -1.493366 -0.605968 28.108103 -0.499189 1.881612 -28.328693 0.000000 0.000000 0.000000 -26.065396 0.502037 -1.728191 -45.868246 -7.029915 -5.156325 -22.589652 -36.798546 9.763975 0.000000 0.000000 0.000000 16.612477 5.284703 1.794413 51.112384 3.505439 -5.874382 20.581504 45.108884 10.719907 0.000000 0.000000 0.000000 
-0.002725 0.950604 0.008198 -0.197154 0.263305 2.835607 4.468134 -0.106178 -0.365940 -3.492715 0.387438 -3.162947 4.099559 10.212700 6.655278 0.000000 0.000000 0.000000 -3.293873 0.196725 -1.388359 1.905143 -0.172538 1.262412 -3.267914 -9.707762 5.413883 0.000000 0.000000 0.000000 -0.545120 -0.214198 6.157224 4.654865 -0.644486 -21.850118 -1.389117 -0.472332 28.630927 -0.027284 1.635932 -28.169733 0.000000 0.000000 0.000000 -25.156595 0.853618 -1.905772 -46.070966 -7.131614 -5.169754 -27.908424 -41.240130 13.273603 0.000000 0.000000 0.000000 16.221759 4.608180 1.502489 50.685646 3.025110 -6.071330 28.234893 49.686583 15.767765 0.000000 0.000000 0.000000 
-0.003340 0.950016 0.014129 -0.091364 0.414992 3.088797 4.122867 -0.141383 -1.042696 -3.308030 0.368671 -2.665511 3.939884 9.768364 5.907039 0.000000 0.000000 0.000000 -3.190892 0.200149 -1.444553 1.574806 -0.130393 1.422245 -3.209798 -9.378766 4.613279 0.000000 0.000000 0.000000 -0.878142 -0.192295 6.229308 4.770355 -0.697045 -21.446419 -1.356686 -0.320383 28.645486 0.152153 1.567888 -27.989551 0.000000 0.000000 0.000000 -24.159260 1.525612 -2.316701 -45.729913 -6.586049 -5.298684 -36.684113 -46.251616 19.223637 0.000000 0.000000 0.000000 15.861119 3.803286 1.150178 50.691338 1.838788 -6.540136 37.609489 53.936869 22.620898 0.000000 0.000000 0.000000 
-0.004141 0.949036 0.022373 -0.017802 0.301997 3.560169 3.965007 -0.183633 -1.765179 -3.301764 0.363562 -1.645863 3.756057 9.150800 4.722537 0.000000 0.000000 0.000000 -3.263451 0.205055 -1.434032 1.502799 -0.118172 1.534456 -3.191197 -9.140739 3.830615 0.000000 0.000000 0.000000 -1.225729 -0.157029 5.980825 4.669967 -0.677407 -21.319682 -1.073611 -0.094323 29.035945 0.457763 1.423879 -28.030981 0.000000 0.000000 0.000000 -23.206897 2.195481 -2.662820 -45.710601 -6.310104 -5.410979 -48.764697 -50.195974 27.709991 0.000000 0.000000 0.000000 15.688309 3.072441 0.823080 50.265227 0.796687 -6.933351 50.271945 57.197850 32.171578 0.000000 0.000000 0.000000 
-0.004979 0.947894 0.032261 -0.173042 0.387894 3.765852 3.930561 -0.207625 -2.147927 -3.143253 0.342407 -0.796893 3.499001 8.390461 3.621815 0.000000 0.000000 0.000000 -3.132475 0.187296 -1.207352 1.340016 -0.091404 1.812567 -3.069579 -8.633692 2.973520 0.000000 0.000000 0.000000 -1.435890 -0.141050 5.963913 4.643622 -0.688993 -21.002499 -1.008013 -0.009681 29.095220 0.568131 1.400055 -28.282105 0.000000 0.000000 0.000000 -22.587439 2.458762 -2.799168 -45.587320 -5.986412 -5.502213 -60.015420 -52.960599 36.392865 0.000000 0.000000 0.000000 15.442429 2.693155 0.669363 50.501126 0.021129 -7.271312 61.541990 58.948370 41.162426 0.000000 0.000000 0.000000 
-0.005746 0.946029 0.042910 -0.344546 0.368652 4.046601 3.916678 -0.256052 -2.961970 -2.890245 0.302899 0.822315 3.141473 7.250371 2.025159 0.000000 0.000000 0.000000 -2.953680 0.161274 -0.877907 1.210290 -0.055985 2.492145 -3.032891 -8.296686 2.076179 0.000000 0.000000 0.000000 -1.852939 -0.117994 6.303019 4.864954 -0.745944 -21.006255 -0.928284 -0.019768 29.092727 0.713018 1.366120 -29.095619 0.000000 0.000000 0.000000 -21.760160 2.918685 -2.979283 -45.532849 -5.820358 -5.544365 -70.329347 -54.011132 44.290806 0.000000 0.000000 0.000000 14.959411 2.539245 0.603648 50.435387 -0.318843 -7.385796 72.458573 59.500407 49.787031 0.000000 0.000000 0.000000 
-0.006066 0.943675 0.053783 -0.497909 0.185546 4.328591 3.799965 -0.311404 -3.896457 -2.708988 0.263735 2.740914 3.070854 6.655468 0.526908 0.000000 0.000000 0.000000 -2.769181 0.175791 -1.088741 0.927335 0.015738 3.607186 -2.756739 -7.207596 0.685144 0.000000 0.000000 0.000000 -2.284348 -0.091332 6.714859 4.915525 -0.785656 -20.634816 -0.722948 0.239027 28.981461 0.389187 1.624381 -30.101819 0.000000 0.000000 0.000000 -21.249850 2.837199 -2.923707 -45.213230 -6.133801 -5.379863 -77.315295 -54.693347 50.018539 0.000000 0.000000 0.000000 14.646450 2.779173 0.763271 50.484482 -0.054321 -7.277772 79.794408 60.500516 56.764330 0.000000 0.000000 0.000000 
-0.005721 0.941046 0.064679 -0.540794 0.543706 4.630291 3.578307 -0.406433 -5.373865 -2.664043 0.221294 5.779555 2.824293 5.327991 -1.857691 0.000000 0.000000 0.000000 -2.861722 0.183778 -1.158186 0.846868 0.057458 4.634129 -2.815178 -6.904394 -0.700991 0.000000 0.000000 0.000000 -2.569803 -0.079476 7.340012 5.110118 -0.832263 -20.589730 -0.675618 0.417999 29.166916 0.369943 1.746928 -30.992263 0.000000 0.000000 0.000000 -21.093806 2.576539 -2.868358 -44.814020 -6.789559 -5.101895 -82.711583 -55.527104 54.922478 0.000000 0.000000 0.000000 14.628381 3.012489 0.974793 50.032255 0.367439 -7.083496 86.723466 61.614004 64.153270 0.000000 0.000000 0.000000 
-0.004542 0.938804 0.075780 -0.609786 0.655474 5.067659 3.516925 -0.495927 -6.767285 -2.787102 0.210974 8.506247 2.675282 4.435069 -3.350994 0.000000 0.000000 0.000000 -2.865377 0.210625 -1.474529 0.597446 0.125661 5.595896 -2.562271 -5.787911 -2.023019 0.000000 0.000000 0.000000 -2.766674 -0.070171 7.953858 5.225381 -0.866107 -20.462277 -0.686532 0.536373 29.295529 0.310806 1.825953 -31.345885 0.000000 0.000000 0.000000 -21.166503 2.602434 -2.945439 -44.422974 -7.673172 -4.764774 -86.156353 -56.271157 58.464019 0.000000 0.000000 0.000000 14.097243 3.355229 1.195410 49.903143 0.936806 -6.847166 91.589048 62.517820 69.725693 0.000000 0.000000 0.000000 
-0.002938 0.936268 0.087348 -0.536262 1.051380 5.376012 2.906690 -0.616143 -8.216110 -2.897794 0.188874 11.771903 2.897338 4.248536 -5.030988 0.000000 0.000000 0.000000 -2.982468 0.198571 -1.273025 0.451252 0.184773 6.746643 -2.774196 -5.979684 -3.111020 0.000000 0.000000 0.000000 -3.129029 -0.049508 8.863922 5.203337 -0.837756 -20.618793 -0.490815 0.870944 29.663027 -0.121505 2.144758 -31.376543 0.000000 0.000000 0.000000 -21.641265 1.979439 -2.802215 -43.901979 -8.224125 -4.528672 -89.752339 -57.667790 62.752796 0.000000 0.000000 0.000000 14.476147 3.779138 1.540650 49.194804 1.621597 -6.567588 97.046572 63.865224 76.863317 0.000000 0.000000 0.000000 
-0.001151 0.933604 0.099997 -0.548184 1.432187 5.345825 2.368821 -0.710760 -9.177731 -3.033721 0.173233 14.733367 3.362351 4.662332 -6.632641 0.000000 0.000000 0.000000 -2.647860 0.162875 -0.932742 0.069813 0.283396 7.788855 -2.850803 -5.655689 -4.632393 0.000000 0.000000 0.000000 -3.478705 -0.027732 9.665374 5.082552 -0.812038 -20.404333 -0.008689 1.246944 29.888853 -0.361967 2.365709 -31.319549 0.000000 0.000000 0.000000 -21.946254 2.005604 -3.032329 -43.617431 -8.664588 -4.339294 -93.355404 -58.264136 66.387565 0.000000 0.000000 0.000000 14.326096 4.274759 1.919672 49.541389 1.908284 -6.530800 102.733121 65.064448 84.502711 0.000000 0.000000 0.000000 
0.000536 0.930465 0.113706 -0.427651 1.745398 5.555911 1.854585 -0.827273 -10.309485 -2.733222 0.040820 17.802610 3.669759 4.749514 -8.145500 0.000000 0.000000 0.000000 -2.376690 0.225318 -1.791260 0.114611 0.377239 10.808612 -3.376477 -6.347491 -6.985182 0.000000 0.000000 0.000000 -4.152445 0.037975 10.664453 5.347374 -0.832582 -20.956225 0.222520 2.115193 30.585287 -0.343636 2.546258 -31.598777 0.000000 0.000000 0.000000 -22.311433 1.789291 -3.270965 -43.489573 -9.056297 -4.165392 -96.794202 -59.492548 70.497870 0.000000 0.000000 0.000000 14.148374 4.137241 2.084790 49.843730 2.844405 -6.294447 109.913116 65.436770 93.649895 0.000000 0.000000 0.000000 
